<svg width="118" height="96" viewBox="0 0 118 96" fill="none" xmlns="http://www.w3.org/2000/svg">
<path d="M48.9782 50.4894C48.063 48.511 45.8901 47.2465 43.5744 47.3836C36.0548 48.0712 28.6997 54.255 24.8379 63.1318C22.8115 67.6947 21.7055 71.4596 20.9803 77.4511C23.3185 74.7584 28.0879 70.3337 33.5003 67.9148C33.5003 67.9148 34.2368 62.1708 37.9923 57.0585C39.4134 54.9415 42.2574 51.5338 45.4507 52.4403C48.2406 53.3754 47.2601 61.0986 43.5519 68.5728C40.8081 74.0704 36.6095 79.5688 32.3613 83.3607C28.6054 86.5491 23.0485 90.3966 18.1866 87.4287C15.1244 85.6155 13.5625 81.8217 13.8926 76.9295C15.3557 63.0503 21.6736 51.2318 30.7149 37.7646C40.0375 25.2593 50.314 12.4241 64.1579 5.57939C66.9816 4.15043 69.5966 3.8207 71.857 4.70023C71.857 4.70023 58.8615 11.8462 52.6668 25.0666C51.091 28.4203 48.8993 32.9539 51.1064 36.967C52.2597 39.0554 54.3076 39.2206 55.9563 39.1106C63.5495 37.3512 68.4553 30.2604 72.4635 23.7747C74.7874 18.855 76.8529 13.9628 76.8529 8.52069C76.8529 7.86123 76.8187 6.98207 76.7628 6.32185C80.3906 4.39867 87.8294 7.80602 87.8294 7.80602C93.6426 9.73071 106.02 19.2133 110.196 21.0265C112.232 18.6631 115.579 15.0905 117.464 13.3037L114.736 11.6269C110.368 8.96083 105.751 6.43189 101.207 3.93111C90.8875 -1.70249 82.4877 0.275897 78.2124 1.81527C76.5322 2.41953 74.9966 2.94192 74.9966 2.94192C71.8239 -0.521017 66.6207 -0.192037 62.7868 0.743079C48.9989 4.70061 36.1975 14.3473 22.4731 31.0859C12.3829 44.1963 6.12399 55.5202 2.788 66.7059C0.216615 74.236 -0.564903 85.3125 5.71126 91.8816C11.0474 97.4592 18.1231 96.2511 23.1198 94.2453C33.9457 88.9132 43.6758 77.4241 48.5242 64.204C49.694 60.2743 50.9926 54.7225 48.9782 50.4894ZM73.8718 9.07087C72.4387 25.5067 59.6629 35.1546 56.5019 35.923C54.5863 36.3071 51.3175 35.4558 54.2355 28.5581C58.5329 19.2674 65.8696 11.3801 73.7415 7.33959C73.933 8.02684 73.9281 8.46548 73.8718 9.07087Z" fill="#F89D21" fill-opacity="0.6"/>
</svg>
