<svg width="131" height="100" viewBox="0 0 131 100" fill="none" xmlns="http://www.w3.org/2000/svg">
<path d="M115.652 86.6971C104.473 79.4956 89.3011 78.2318 64.833 85.0202C38.7485 91.1499 30.0516 95.0793 18.63 87.1913C14.2421 83.3164 12.669 77.0774 13.8437 68.0905C16.5683 53.4404 23.9313 39.3419 37.0098 23.7033C44.31 15.5682 51.0816 8.58675 60.0234 5.78328C66.8764 4.02459 66.2357 9.41033 65.4065 10.1806C64.5314 10.1806 63.0616 10.3184 61.9255 11.0597C61.0035 11.7748 58.4727 14.0837 58.3368 17.1894C58.1407 21.9439 63.0612 20.9543 65.1834 18.3439C67.4709 15.4022 70.8515 9.76898 68.1923 4.51881C67.0777 2.65008 65.1518 1.35857 62.7607 0.918801C54.573 0.450868 46.9475 4.35394 39.9101 8.66899C24.5194 19.3605 12.2078 34.1751 5.24136 50.3913C1.22487 60.1755 -2.40743 74.1909 3.03727 85.5982C7.24904 93.5133 15.9933 97.7175 26.4257 96.8384C33.7425 96.0696 42.59 93.7048 48.5406 92.277C54.4912 90.8469 84.9515 80.3762 94.9599 98.5997C94.9599 98.5997 98.288 92.1391 106.605 92.0013C113.443 91.3704 123.308 93.9808 130.492 99.2569C128.098 95.6577 121.313 90.353 115.652 86.6971Z" fill="#F89D21" fill-opacity="0.6"/>
</svg>
