<svg width="110" height="50" viewBox="0 0 110 50" fill="none" xmlns="http://www.w3.org/2000/svg">
<rect width="110" height="50" fill="#1E1E1E"/>
<g id="Design" clip-path="url(#clip0_0_1)">
<rect width="1440" height="2560" transform="translate(-851 -1424)" fill="#EBF0FF"/>
<g id="Background">
<g id="bg" opacity="0.5">
<rect id="Rectangle 54" opacity="0.7" width="634" height="634" transform="matrix(1 0 0 -1 -509 479)" fill="url(#paint0_radial_0_1)"/>
<rect id="Rectangle 56" width="634" height="634" transform="matrix(1 0 0 -1 -252 203)" fill="url(#paint1_radial_0_1)"/>
<rect id="Rectangle 57" width="634" height="634" transform="matrix(1 0 0 -1 -145 331)" fill="url(#paint2_radial_0_1)"/>
<rect id="Rectangle 58" width="634" height="634" transform="matrix(1 0 0 -1 -4 70)" fill="url(#paint3_radial_0_1)"/>
</g>
</g>
<g id="Frame 83">
<g id="Frame 77">
<g id="Frame 78">
<g id="Frame 76">
<g id="g3">
<path id="path5" d="M84.6522 62.6971C73.4729 55.4956 58.3011 54.2318 33.833 61.0202C7.74855 67.1499 -0.948408 71.0793 -12.37 63.1913C-16.7579 59.3164 -18.331 53.0774 -17.1563 44.0905C-14.4317 29.4404 -7.06872 15.3419 6.00975 -0.296675C13.31 -8.4318 20.0816 -15.4133 29.0234 -18.2167C35.8764 -19.9754 35.2357 -14.5897 34.4065 -13.8194C33.5314 -13.8194 32.0616 -13.6816 30.9255 -12.9403C30.0035 -12.2252 27.4727 -9.91635 27.3368 -6.81056C27.1407 -2.05612 32.0612 -3.04569 34.1834 -5.65613C36.4709 -8.5978 39.8515 -14.231 37.1923 -19.4812C36.0777 -21.3499 34.1518 -22.6414 31.7607 -23.0812C23.573 -23.5491 15.9475 -19.6461 8.91011 -15.331C-6.48061 -4.63952 -18.7922 10.1751 -25.7586 26.3913C-29.7751 36.1755 -33.4074 50.1909 -27.9627 61.5982C-23.751 69.5133 -15.0067 73.7175 -4.57433 72.8384C2.74249 72.0696 11.59 69.7048 17.5406 68.277C23.4912 66.8469 53.9515 56.3762 63.9599 74.5997C63.9599 74.5997 67.288 68.1391 75.6052 68.0013C82.4432 67.3704 92.3078 69.9808 99.4916 75.2569C97.0983 71.6577 90.3129 66.353 84.6522 62.6971Z" fill="#F89D21" fill-opacity="0.6"/>
<path id="path7" d="M36.9391 1.54458C31.242 -2.19325 19.7916 4.95268 10.6203 17.2102C2.23354 28.2051 -1.38787 40.9839 2.55313 46.8932C8.41582 53.8465 19.2992 43.7326 23.9275 38.319L24.5246 37.6862C27.6721 34.3055 30.1037 30.2376 32.4573 26.3345C32.4573 26.3345 34.6205 22.7616 34.7237 22.5963C36.0607 22.35 37.671 21.965 39.4857 21.4426C39.4598 21.5245 32.5429 33.1507 33.2486 38.9214C33.4683 40.682 33.3004 47.1133 39.5796 49.0642C47.9483 50.4669 54.6308 43.9797 60.5262 38.2079C60.5262 38.2079 61.5308 37.2468 62.099 36.6982C61.9551 37.2739 61.7677 38.0419 61.7677 38.0419C59.3177 46.5623 62.6202 48.3499 64.6861 49.0098C70.9296 50.8248 78.3884 41.7542 78.4124 41.7542C78.219 44.6114 77.6534 46.9751 80.6653 48.8716C83.5082 49.8893 86.3853 48.3379 88.5721 46.8812C96.4493 41.3294 102.795 32.6404 107.921 25.1294H104.652C104.613 25.1294 96.5837 36.7669 91.37 39.2962C91.3617 39.2962 90.4131 39.7833 89.8663 39.398C89.1895 38.8204 89.4566 37.6201 89.8745 36.7699C89.9008 36.7143 110.005 1.84539 110.005 1.84539H100.513C100.513 1.84539 99.4758 3.52297 99.3913 3.633C99.3275 3.57817 99.1754 3.28975 99.0698 3.15155C93.1888 -4.98358 79.8707 7.52969 69.8439 22.0409C65.9837 27.6208 61.0688 33.9033 55.9726 38.4381C55.9726 38.4381 48.423 45.3587 45.197 40.3864C44.0178 38.2973 44.3806 35.2429 45.0457 33.2371C48.8016 22.5456 55.2734 12.8426 62.6379 6.98778C64.7169 5.36729 66.9766 4.8986 68.098 5.58585C69.1664 6.21903 69.3388 7.78432 68.6628 8.85651C66.9477 8.80168 65.5735 9.32294 64.4563 10.4774C62.2556 12.7862 61.491 15.0129 62.1906 17.102C65.5897 21.9391 72.3687 12.3743 72.0409 6.54764C71.9237 4.45846 70.8091 2.48007 69.1458 1.51716C66.6668 0.0337456 62.885 0.417932 60.4375 1.60053C57.1613 2.83684 51.9749 7.15152 48.9476 10.5052C45.1366 14.7109 38.6005 19.3828 36.5564 18.8596C37.226 17.0724 42.747 5.77664 36.9391 1.54458ZM82.7038 18.255C84.5504 15.6994 89.9249 8.85538 91.2352 7.70132C95.6418 3.82453 97.4032 5.53027 97.5556 6.73879C93.443 14.1044 88.589 22.5426 84.0254 30.1287C84.0348 30.1017 82.5972 32.2997 82.5972 32.2997C80.5816 35.3774 78.5521 38.016 75.2417 39.8573C74.7696 39.9955 73.9915 40.0507 73.4736 39.6646C72.8502 39.2523 72.6042 38.565 72.6744 37.85C72.8727 35.487 75.2788 28.26 82.7038 18.255ZM31.064 22.6797C31.064 22.6797 30.9814 22.9279 30.9405 23.0091C30.9299 23.0091 26.8019 29.7419 26.8019 29.7419C24.3105 33.0681 21.1999 37.2468 17.3114 39.2523C16.1589 39.6372 14.5658 39.8851 13.7539 38.8688C12.0327 36.8071 12.9198 33.9488 13.6405 31.6403L13.8954 30.8156C15.9617 25.2094 19.2403 20.2612 22.4313 15.6712C22.4711 15.6442 22.5605 15.6168 22.5928 15.6168C22.6003 15.6442 22.6131 15.6442 22.6187 15.6994C24.6211 19.5465 28.3758 21.3322 31.1838 22.1581C31.2007 22.1581 31.2187 22.1855 31.2187 22.2407C31.2191 22.3225 31.1733 22.4333 31.064 22.6797ZM34.975 14.7376C34.957 14.7924 33.1363 18.9697 33.1363 18.9697C32.873 19.1893 32.4569 19.0797 31.98 18.9697L31.1628 18.8314C28.5967 18.0349 26.6611 16.3307 26.0643 14.2971C25.2411 10.3392 28.6222 7.23339 30.112 6.10712C31.5413 5.11679 33.7635 4.59478 35.0538 5.61214C35.8496 6.54688 36.1512 7.75577 36.1512 9.07583C36.1516 10.8619 35.6003 12.8681 34.975 14.7376Z" fill="#F89D21" fill-opacity="0.6"/>
<path id="path9" d="M154.978 27.4894C154.063 25.511 151.89 24.2465 149.574 24.3836C142.055 25.0712 134.7 31.255 130.838 40.1318C128.811 44.6947 127.705 48.4596 126.98 54.4511C129.318 51.7584 134.088 47.3337 139.5 44.9148C139.5 44.9148 140.237 39.1708 143.992 34.0585C145.413 31.9415 148.257 28.5338 151.451 29.4403C154.241 30.3754 153.26 38.0986 149.552 45.5728C146.808 51.0704 142.61 56.5688 138.361 60.3607C134.605 63.5491 129.048 67.3966 124.187 64.4287C121.124 62.6155 119.562 58.8217 119.893 53.9295C121.356 40.0503 127.674 28.2318 136.715 14.7646C146.038 2.25926 156.314 -10.5759 170.158 -17.4206C172.982 -18.8496 175.597 -19.1793 177.857 -18.2998C177.857 -18.2998 164.862 -11.1538 158.667 2.0666C157.091 5.42025 154.899 9.95387 157.106 13.967C158.26 16.0554 160.308 16.2206 161.956 16.1106C169.549 14.3512 174.455 7.26044 178.463 0.774715C180.787 -4.14497 182.853 -9.03724 182.853 -14.4793C182.853 -15.1388 182.819 -16.0179 182.763 -16.6781C186.391 -18.6013 193.829 -15.194 193.829 -15.194C199.643 -13.2693 212.02 -3.7867 216.196 -1.97355C218.232 -4.33687 221.579 -7.90947 223.464 -9.69633L220.736 -11.3731C216.368 -14.0392 211.751 -16.5681 207.207 -19.0689C196.888 -24.7025 188.488 -22.7241 184.212 -21.1847C182.532 -20.5805 180.997 -20.0581 180.997 -20.0581C177.824 -23.521 172.621 -23.192 168.787 -22.2569C154.999 -18.2994 142.198 -8.65267 128.473 8.0859C118.383 21.1963 112.124 32.5202 108.788 43.7059C106.217 51.236 105.435 62.3125 111.711 68.8816C117.047 74.4592 124.123 73.2511 129.12 71.2453C139.946 65.9132 149.676 54.4241 154.524 41.204C155.694 37.2743 156.993 31.7225 154.978 27.4894ZM179.872 -13.9291C178.439 2.50675 165.663 12.1546 162.502 12.923C160.586 13.3071 157.317 12.4558 160.236 5.55808C164.533 -3.73262 171.87 -11.6199 179.741 -15.6604C179.933 -14.9732 179.928 -14.5345 179.872 -13.9291Z" fill="#F89D21" fill-opacity="0.6"/>
</g>
</g>
</g>
</g>
</g>
</g>
<defs>
<radialGradient id="paint0_radial_0_1" cx="0" cy="0" r="1" gradientUnits="userSpaceOnUse" gradientTransform="translate(317 317) rotate(90) scale(317)">
<stop stop-color="#B9CEEA"/>
<stop offset="1" stop-color="#F6FBF8" stop-opacity="0"/>
</radialGradient>
<radialGradient id="paint1_radial_0_1" cx="0" cy="0" r="1" gradientUnits="userSpaceOnUse" gradientTransform="translate(317 317) rotate(90) scale(317)">
<stop stop-color="#FAB7B8"/>
<stop offset="1" stop-color="#F6FBF8" stop-opacity="0"/>
</radialGradient>
<radialGradient id="paint2_radial_0_1" cx="0" cy="0" r="1" gradientUnits="userSpaceOnUse" gradientTransform="translate(317 317) rotate(90) scale(317)">
<stop stop-color="#FFDF7C"/>
<stop offset="1" stop-color="#F6FBF8" stop-opacity="0"/>
</radialGradient>
<radialGradient id="paint3_radial_0_1" cx="0" cy="0" r="1" gradientUnits="userSpaceOnUse" gradientTransform="translate(317 317) rotate(90) scale(317)">
<stop stop-color="#B9CEEA"/>
<stop offset="1" stop-color="#F6FBF8" stop-opacity="0"/>
</radialGradient>
<clipPath id="clip0_0_1">
<rect width="1440" height="2560" fill="white" transform="translate(-851 -1424)"/>
</clipPath>
</defs>
</svg>
