<svg width="102" height="95" viewBox="0 0 102 95" fill="none" xmlns="http://www.w3.org/2000/svg">
<path d="M83.001 85.462C82.0317 86.1215 80.67 85.6145 81.1792 84.1033C82.4474 80.2554 87.4895 72.414 87.4895 72.414L101.534 47.5053H91.9135C91.4565 48.2564 90.4785 49.9813 90.4785 49.9813C90.0335 49.24 88.7026 47.5913 88.1546 47.2353C85.8044 45.75 82.3562 46.4523 79.9774 47.7986C69.6352 53.8461 62.0893 65.7942 56.1384 75.1119C56.1384 75.1119 49.8738 85.4695 46.3963 86.2398C43.6814 86.4598 43.9616 82.8028 44.0791 81.9506C45.1288 75.7931 47.5665 69.9395 50.0226 64.6348C55.0177 61.1719 60.7186 56.6372 65.8993 51.6627C77.1424 40.9152 86.6209 28.7395 88.0063 26.0187C88.0063 26.0187 86.5067 26.3214 84.736 26.3758C76.0864 38.4415 58.386 55.9773 53.0198 58.5878C55.397 52.87 70.7558 25.5786 83.826 12.5237L85.8829 10.5442C89.0631 7.43844 92.3585 4.25041 94.9265 3.72802C95.1977 3.7006 95.5469 3.72802 95.8485 4.36119C95.963 6.77935 95.0628 8.56621 94.0301 10.5998L92.5827 13.5685C92.5827 13.5685 94.6328 13.1836 95.9792 12.7427C97.5415 9.80327 99.2716 6.50407 98.6339 2.57471C98.421 1.31024 97.5058 0.348459 96.3097 0.128387C92.4107 -0.613697 88.1614 2.27127 84.7424 4.60831L84.6042 4.69017C67.0282 18.46 52.1865 38.304 39.2109 65.404C38.2705 66.1175 34.6371 66.9704 34.0193 66.5577C35.3007 63.9198 36.914 60.3735 37.7215 56.5256C37.8612 55.426 37.9911 54.2998 37.9911 53.2005C37.9911 50.8349 37.4233 48.6094 35.3041 47.0708C32.8194 45.8338 29.7486 46.4114 27.6782 47.3453C18.4029 51.1932 11.4706 60.7036 6.46833 68.5357C3.7779 73.5117 1.09535 78.8411 0.35252 84.9438C-0.170619 89.7252 0.894439 92.8036 3.61303 94.3434C6.40899 95.7716 9.92788 94.287 11.3103 93.5731C20.7069 88.626 27.2722 78.7048 32.4477 69.6341C32.6535 69.6071 35.4791 69.5252 37.6163 68.9747C37.6449 68.9747 37.6569 68.9747 37.7042 69.0036C37.5818 69.4141 36.4773 72.7133 36.4773 72.7133C33.1972 82.3322 31.6804 88.8743 34.7787 92.7488C39.206 98.2187 46.5356 92.5573 52.4982 85.0801C51.2183 94.0399 55.862 95.4422 59.4015 94.7557C63.4676 93.6569 67.9986 89.3133 70.1013 87.0878C69.426 89.6982 69.6097 94.3711 73.3084 94.838C75.8438 95.3066 77.741 93.9276 79.9365 92.7454C87.8114 88.4574 97.238 74.1689 99.6855 70.0379H96.4764C92.9973 75.2959 88.57 82.1899 83.001 85.462ZM12.316 84.5051C11.8165 83.763 11.6509 82.9515 11.6344 82.0742C11.5386 76.6851 17.3367 67.0339 21.4294 61.7762C21.4381 61.7762 21.4381 61.7762 21.4381 61.7762C23.1532 65.5317 27.0371 67.9457 29.3817 68.963C26.4697 75.4499 16.4827 89.3422 12.316 84.5051ZM31.0251 66.0631C30.7475 66.2565 25.85 64.6067 24.9036 60.0719C24.1007 56.1677 26.7892 53.1172 29.3903 51.5793C30.5068 50.6994 32.1885 50.3978 33.4222 50.8357C34.5672 51.6063 34.8774 52.9816 34.8774 54.4635C34.8774 55.3723 34.7569 56.3059 34.6506 57.1577C34.6506 57.1577 34.6303 57.3233 34.627 57.3507C33.8109 60.4005 32.5622 63.3967 31.0251 66.0631ZM70.3059 82.7738C70.3018 82.7738 69.3768 83.5982 69.3768 83.5982C68.0557 84.7793 66.6962 86.0437 65.055 85.4113C64.6017 85.2465 64.2829 84.6426 64.2063 84.1739C64.1315 80.7932 65.654 77.6607 67.1303 74.6105L67.5089 73.8129C71.7556 66.7221 76.6918 58.3669 83.9413 52.5685C85.163 51.6871 86.4887 50.9465 87.888 51.5241C88.2098 51.8256 88.5846 52.3484 88.5846 52.87C88.5846 53.0357 88.4378 53.475 88.3529 53.6117C86.3283 56.8839 84.3999 60.319 82.5248 63.6167C78.8602 70.131 75.0585 76.8638 70.3059 82.7738Z" fill="#F89D21" fill-opacity="0.6"/>
</svg>
