<svg width="504" height="105" viewBox="0 0 504 105" fill="none" xmlns="http://www.w3.org/2000/svg">
<path d="M2.03409 37V2.09091H9.41477V30.9148H24.3807V37H2.03409ZM40.9616 37.5114C38.3139 37.5114 36.0241 36.9489 34.0923 35.8239C32.1719 34.6875 30.6889 33.108 29.6435 31.0852C28.598 29.0511 28.0753 26.6932 28.0753 24.0114C28.0753 21.3068 28.598 18.9432 29.6435 16.9205C30.6889 14.8864 32.1719 13.3068 34.0923 12.1818C36.0241 11.0455 38.3139 10.4773 40.9616 10.4773C43.6094 10.4773 45.8935 11.0455 47.8139 12.1818C49.7457 13.3068 51.2344 14.8864 52.2798 16.9205C53.3253 18.9432 53.848 21.3068 53.848 24.0114C53.848 26.6932 53.3253 29.0511 52.2798 31.0852C51.2344 33.108 49.7457 34.6875 47.8139 35.8239C45.8935 36.9489 43.6094 37.5114 40.9616 37.5114ZM40.9957 31.8864C42.2003 31.8864 43.206 31.5455 44.0128 30.8636C44.8196 30.1705 45.4276 29.2273 45.8366 28.0341C46.2571 26.8409 46.4673 25.483 46.4673 23.9602C46.4673 22.4375 46.2571 21.0795 45.8366 19.8864C45.4276 18.6932 44.8196 17.75 44.0128 17.0568C43.206 16.3636 42.2003 16.017 40.9957 16.017C39.7798 16.017 38.7571 16.3636 37.9276 17.0568C37.1094 17.75 36.4901 18.6932 36.0696 19.8864C35.6605 21.0795 35.456 22.4375 35.456 23.9602C35.456 25.483 35.6605 26.8409 36.0696 28.0341C36.4901 29.2273 37.1094 30.1705 37.9276 30.8636C38.7571 31.5455 39.7798 31.8864 40.9957 31.8864ZM58.5696 37V10.8182H65.6094V15.3864H65.8821C66.3594 13.7614 67.1605 12.5341 68.2855 11.7045C69.4105 10.8636 70.706 10.4432 72.1719 10.4432C72.5355 10.4432 72.9276 10.4659 73.348 10.5114C73.7685 10.5568 74.1378 10.6193 74.456 10.6989V17.142C74.1151 17.0398 73.6435 16.9489 73.0412 16.8693C72.4389 16.7898 71.8878 16.75 71.3878 16.75C70.3196 16.75 69.3651 16.983 68.5241 17.4489C67.6946 17.9034 67.0355 18.5398 66.5469 19.358C66.0696 20.1761 65.831 21.1193 65.831 22.1875V37H58.5696ZM88.9233 37.5114C86.2301 37.5114 83.9119 36.9659 81.9688 35.875C80.0369 34.7727 78.5483 33.2159 77.5028 31.2045C76.4574 29.1818 75.9347 26.7898 75.9347 24.0284C75.9347 21.3352 76.4574 18.9716 77.5028 16.9375C78.5483 14.9034 80.0199 13.3182 81.9176 12.1818C83.8267 11.0455 86.0653 10.4773 88.6335 10.4773C90.3608 10.4773 91.9688 10.7557 93.4574 11.3125C94.9574 11.858 96.2642 12.6818 97.3778 13.7841C98.5028 14.8864 99.3778 16.2727 100.003 17.9432C100.628 19.6023 100.94 21.5455 100.94 23.7727V25.767H78.8324V21.267H94.1051C94.1051 20.2216 93.8778 19.2955 93.4233 18.4886C92.9688 17.6818 92.3381 17.0511 91.5312 16.5966C90.7358 16.1307 89.8097 15.8977 88.7528 15.8977C87.6506 15.8977 86.6733 16.1534 85.821 16.6648C84.9801 17.1648 84.321 17.8409 83.8438 18.6932C83.3665 19.5341 83.1222 20.4716 83.1108 21.5057V25.7841C83.1108 27.0795 83.3494 28.1989 83.8267 29.142C84.3153 30.0852 85.0028 30.8125 85.8892 31.3239C86.7756 31.8352 87.8267 32.0909 89.0426 32.0909C89.8494 32.0909 90.5881 31.9773 91.2585 31.75C91.929 31.5227 92.5028 31.1818 92.9801 30.7273C93.4574 30.2727 93.821 29.7159 94.071 29.0568L100.787 29.5C100.446 31.1136 99.7472 32.5227 98.6903 33.7273C97.6449 34.9205 96.2926 35.8523 94.6335 36.5227C92.9858 37.1818 91.0824 37.5114 88.9233 37.5114ZM105.679 37V10.8182H112.599V15.4375H112.906C113.452 13.9034 114.361 12.6932 115.634 11.8068C116.906 10.9205 118.429 10.4773 120.202 10.4773C121.997 10.4773 123.526 10.9261 124.787 11.8239C126.048 12.7102 126.889 13.9148 127.31 15.4375H127.582C128.116 13.9375 129.082 12.7386 130.48 11.8409C131.889 10.9318 133.554 10.4773 135.474 10.4773C137.918 10.4773 139.901 11.2557 141.423 12.8125C142.957 14.358 143.724 16.5511 143.724 19.392V37H136.48V20.8239C136.48 19.3693 136.094 18.2784 135.321 17.5511C134.548 16.8239 133.582 16.4602 132.423 16.4602C131.105 16.4602 130.077 16.8807 129.338 17.7216C128.599 18.5511 128.23 19.6477 128.23 21.0114V37H121.19V20.6705C121.19 19.3864 120.821 18.3636 120.082 17.6023C119.355 16.8409 118.395 16.4602 117.202 16.4602C116.395 16.4602 115.668 16.6648 115.02 17.0739C114.384 17.4716 113.878 18.0341 113.503 18.7614C113.128 19.4773 112.94 20.3182 112.94 21.2841V37H105.679ZM160.57 37V10.8182H167.831V37H160.57ZM164.217 7.44318C163.138 7.44318 162.212 7.08523 161.439 6.36932C160.678 5.64204 160.297 4.77273 160.297 3.76136C160.297 2.76136 160.678 1.90341 161.439 1.1875C162.212 0.460226 163.138 0.0965891 164.217 0.0965891C165.297 0.0965891 166.217 0.460226 166.979 1.1875C167.751 1.90341 168.138 2.76136 168.138 3.76136C168.138 4.77273 167.751 5.64204 166.979 6.36932C166.217 7.08523 165.297 7.44318 164.217 7.44318ZM173.648 46.8182V10.8182H180.807V15.2159H181.131C181.449 14.5114 181.909 13.7955 182.511 13.0682C183.125 12.3295 183.92 11.7159 184.898 11.2273C185.886 10.7273 187.114 10.4773 188.58 10.4773C190.489 10.4773 192.25 10.9773 193.864 11.9773C195.477 12.9659 196.767 14.4602 197.733 16.4602C198.699 18.4489 199.182 20.9432 199.182 23.9432C199.182 26.8636 198.71 29.3295 197.767 31.3409C196.835 33.3409 195.563 34.858 193.949 35.892C192.347 36.9148 190.551 37.4261 188.562 37.4261C187.153 37.4261 185.955 37.1932 184.966 36.7273C183.989 36.2614 183.188 35.6761 182.562 34.9716C181.938 34.2557 181.46 33.5341 181.131 32.8068H180.909V46.8182H173.648ZM180.756 23.9091C180.756 25.4659 180.972 26.8239 181.403 27.983C181.835 29.142 182.46 30.0455 183.278 30.6932C184.097 31.3295 185.091 31.6477 186.261 31.6477C187.443 31.6477 188.443 31.3239 189.261 30.6761C190.08 30.017 190.699 29.108 191.119 27.9489C191.551 26.7784 191.767 25.4318 191.767 23.9091C191.767 22.3977 191.557 21.0682 191.136 19.9205C190.716 18.7727 190.097 17.875 189.278 17.2273C188.46 16.5795 187.455 16.2557 186.261 16.2557C185.08 16.2557 184.08 16.5682 183.261 17.1932C182.455 17.8182 181.835 18.7045 181.403 19.8523C180.972 21 180.756 22.3523 180.756 23.9091ZM225.807 18.2841L219.159 18.6932C219.045 18.125 218.801 17.6136 218.426 17.1591C218.051 16.6932 217.557 16.3239 216.943 16.0511C216.341 15.767 215.619 15.625 214.778 15.625C213.653 15.625 212.705 15.8636 211.932 16.3409C211.159 16.8068 210.773 17.4318 210.773 18.2159C210.773 18.8409 211.023 19.3693 211.523 19.8011C212.023 20.233 212.881 20.5795 214.097 20.8409L218.835 21.7955C221.381 22.3182 223.278 23.1591 224.528 24.3182C225.778 25.4773 226.403 27 226.403 28.8864C226.403 30.6023 225.898 32.108 224.886 33.4034C223.886 34.6989 222.511 35.7102 220.761 36.4375C219.023 37.1534 217.017 37.5114 214.744 37.5114C211.278 37.5114 208.517 36.7898 206.46 35.3466C204.415 33.892 203.216 31.9148 202.864 29.4148L210.006 29.0398C210.222 30.0966 210.744 30.9034 211.574 31.4602C212.403 32.0057 213.466 32.2784 214.761 32.2784C216.034 32.2784 217.057 32.0341 217.83 31.5455C218.614 31.0455 219.011 30.4034 219.023 29.6193C219.011 28.9602 218.733 28.4205 218.188 28C217.642 27.5682 216.801 27.2386 215.665 27.0114L211.131 26.108C208.574 25.5966 206.67 24.7102 205.42 23.4489C204.182 22.1875 203.562 20.5795 203.562 18.625C203.562 16.9432 204.017 15.4943 204.926 14.2784C205.847 13.0625 207.136 12.125 208.795 11.4659C210.466 10.8068 212.42 10.4773 214.659 10.4773C217.966 10.4773 220.568 11.1761 222.466 12.5739C224.375 13.9716 225.489 15.875 225.807 18.2841ZM247.766 25.8523V10.8182H255.027V37H248.055V32.2443H247.783C247.192 33.7784 246.209 35.0114 244.834 35.9432C243.47 36.875 241.805 37.3409 239.839 37.3409C238.089 37.3409 236.55 36.9432 235.22 36.1477C233.891 35.3523 232.851 34.2216 232.101 32.7557C231.362 31.2898 230.987 29.5341 230.976 27.4886V10.8182H238.237V26.1932C238.249 27.7386 238.663 28.9602 239.482 29.858C240.3 30.7557 241.396 31.2045 242.771 31.2045C243.646 31.2045 244.464 31.0057 245.226 30.608C245.987 30.1989 246.601 29.5966 247.067 28.8011C247.544 28.0057 247.777 27.0227 247.766 25.8523ZM260.835 37V10.8182H267.756V15.4375H268.062C268.608 13.9034 269.517 12.6932 270.79 11.8068C272.062 10.9205 273.585 10.4773 275.358 10.4773C277.153 10.4773 278.682 10.9261 279.943 11.8239C281.205 12.7102 282.045 13.9148 282.466 15.4375H282.739C283.273 13.9375 284.239 12.7386 285.636 11.8409C287.045 10.9318 288.71 10.4773 290.631 10.4773C293.074 10.4773 295.057 11.2557 296.58 12.8125C298.114 14.358 298.881 16.5511 298.881 19.392V37H291.636V20.8239C291.636 19.3693 291.25 18.2784 290.477 17.5511C289.705 16.8239 288.739 16.4602 287.58 16.4602C286.261 16.4602 285.233 16.8807 284.494 17.7216C283.756 18.5511 283.386 19.6477 283.386 21.0114V37H276.347V20.6705C276.347 19.3864 275.977 18.3636 275.239 17.6023C274.511 16.8409 273.551 16.4602 272.358 16.4602C271.551 16.4602 270.824 16.6648 270.176 17.0739C269.54 17.4716 269.034 18.0341 268.659 18.7614C268.284 19.4773 268.097 20.3182 268.097 21.2841V37H260.835ZM470.729 18.2841L464.081 18.6932C463.967 18.125 463.723 17.6136 463.348 17.1591C462.973 16.6932 462.479 16.3239 461.865 16.0511C461.263 15.767 460.541 15.625 459.7 15.625C458.575 15.625 457.626 15.8636 456.854 16.3409C456.081 16.8068 455.695 17.4318 455.695 18.2159C455.695 18.8409 455.945 19.3693 456.445 19.8011C456.945 20.233 457.803 20.5795 459.018 20.8409L463.757 21.7955C466.303 22.3182 468.2 23.1591 469.45 24.3182C470.7 25.4773 471.325 27 471.325 28.8864C471.325 30.6023 470.82 32.108 469.808 33.4034C468.808 34.6989 467.433 35.7102 465.683 36.4375C463.945 37.1534 461.939 37.5114 459.666 37.5114C456.2 37.5114 453.439 36.7898 451.382 35.3466C449.337 33.892 448.138 31.9148 447.786 29.4148L454.928 29.0398C455.143 30.0966 455.666 30.9034 456.496 31.4602C457.325 32.0057 458.388 32.2784 459.683 32.2784C460.956 32.2784 461.979 32.0341 462.751 31.5455C463.536 31.0455 463.933 30.4034 463.945 29.6193C463.933 28.9602 463.655 28.4205 463.109 28C462.564 27.5682 461.723 27.2386 460.587 27.0114L456.053 26.108C453.496 25.5966 451.592 24.7102 450.342 23.4489C449.104 22.1875 448.484 20.5795 448.484 18.625C448.484 16.9432 448.939 15.4943 449.848 14.2784C450.768 13.0625 452.058 12.125 453.717 11.4659C455.388 10.8068 457.342 10.4773 459.581 10.4773C462.888 10.4773 465.49 11.1761 467.388 12.5739C469.297 13.9716 470.411 15.875 470.729 18.2841ZM475.898 37V10.8182H483.159V37H475.898ZM479.545 7.44318C478.466 7.44318 477.54 7.08523 476.767 6.36932C476.006 5.64204 475.625 4.77273 475.625 3.76136C475.625 2.76136 476.006 1.90341 476.767 1.1875C477.54 0.460226 478.466 0.0965891 479.545 0.0965891C480.625 0.0965891 481.545 0.460226 482.307 1.1875C483.08 1.90341 483.466 2.76136 483.466 3.76136C483.466 4.77273 483.08 5.64204 482.307 6.36932C481.545 7.08523 480.625 7.44318 479.545 7.44318ZM502.902 10.8182V16.2727H487.135V10.8182H502.902ZM490.714 4.54545H497.976V28.9545C497.976 29.625 498.078 30.1477 498.283 30.5227C498.487 30.8864 498.771 31.142 499.135 31.2898C499.51 31.4375 499.942 31.5114 500.43 31.5114C500.771 31.5114 501.112 31.483 501.453 31.4261C501.794 31.358 502.055 31.3068 502.237 31.2727L503.379 36.6761C503.016 36.7898 502.504 36.9205 501.845 37.0682C501.186 37.2273 500.385 37.3239 499.442 37.358C497.692 37.4261 496.158 37.1932 494.839 36.6591C493.533 36.125 492.516 35.2955 491.788 34.1705C491.061 33.0455 490.703 31.625 490.714 29.9091V4.54545ZM9.36364 95.4943C7.69318 95.4943 6.20455 95.2045 4.89773 94.625C3.59091 94.0341 2.55682 93.1648 1.79545 92.017C1.04545 90.858 0.670455 89.4148 0.670455 87.6875C0.670455 86.233 0.9375 85.0114 1.47159 84.0227C2.00568 83.0341 2.73295 82.2386 3.65341 81.6364C4.57386 81.0341 5.61932 80.5795 6.78977 80.2727C7.97159 79.9659 9.21023 79.75 10.5057 79.625C12.0284 79.4659 13.2557 79.3182 14.1875 79.1818C15.1193 79.0341 15.7955 78.8182 16.2159 78.5341C16.6364 78.25 16.8466 77.8295 16.8466 77.2727V77.1705C16.8466 76.0909 16.5057 75.2557 15.8239 74.6648C15.1534 74.0739 14.1989 73.7784 12.9602 73.7784C11.6534 73.7784 10.6136 74.0682 9.84091 74.6477C9.06818 75.2159 8.55682 75.9318 8.30682 76.7955L1.59091 76.25C1.93182 74.6591 2.60227 73.2841 3.60227 72.125C4.60227 70.9545 5.89205 70.0568 7.47159 69.4318C9.0625 68.7955 10.9034 68.4773 12.9943 68.4773C14.4489 68.4773 15.8409 68.6477 17.1705 68.9886C18.5114 69.3295 19.6989 69.858 20.733 70.5739C21.7784 71.2898 22.6023 72.2102 23.2045 73.3352C23.8068 74.4489 24.108 75.7841 24.108 77.3409V95H17.2216V91.3693H17.017C16.5966 92.1875 16.0341 92.9091 15.3295 93.5341C14.625 94.1477 13.7784 94.6307 12.7898 94.983C11.8011 95.3239 10.6591 95.4943 9.36364 95.4943ZM11.4432 90.483C12.5114 90.483 13.4545 90.2727 14.2727 89.8523C15.0909 89.4205 15.733 88.8409 16.1989 88.1136C16.6648 87.3864 16.8977 86.5625 16.8977 85.642V82.8636C16.6705 83.0114 16.358 83.1477 15.9602 83.2727C15.5739 83.3864 15.1364 83.4943 14.6477 83.5966C14.1591 83.6875 13.6705 83.7727 13.1818 83.8523C12.6932 83.9205 12.25 83.983 11.8523 84.0398C11 84.1648 10.2557 84.3636 9.61932 84.6364C8.98295 84.9091 8.48864 85.2784 8.13636 85.7443C7.78409 86.1989 7.60795 86.767 7.60795 87.4489C7.60795 88.4375 7.96591 89.1932 8.68182 89.7159C9.40909 90.2273 10.3295 90.483 11.4432 90.483ZM29.7415 95V68.8182H36.6619V73.4375H36.9688C37.5142 71.9034 38.4233 70.6932 39.696 69.8068C40.9688 68.9205 42.4915 68.4773 44.2642 68.4773C46.0597 68.4773 47.5881 68.9261 48.8494 69.8239C50.1108 70.7102 50.9517 71.9148 51.3722 73.4375H51.6449C52.179 71.9375 53.1449 70.7386 54.5426 69.8409C55.9517 68.9318 57.6165 68.4773 59.5369 68.4773C61.9801 68.4773 63.9631 69.2557 65.4858 70.8125C67.0199 72.358 67.7869 74.5511 67.7869 77.392V95H60.5426V78.8239C60.5426 77.3693 60.1563 76.2784 59.3835 75.5511C58.6108 74.8239 57.6449 74.4602 56.4858 74.4602C55.1676 74.4602 54.1392 74.8807 53.4006 75.7216C52.6619 76.5511 52.2926 77.6477 52.2926 79.0114V95H45.2528V78.6705C45.2528 77.3864 44.8835 76.3636 44.1449 75.6023C43.4176 74.8409 42.4574 74.4602 41.2642 74.4602C40.4574 74.4602 39.7301 74.6648 39.0824 75.0739C38.446 75.4716 37.9403 76.0341 37.5653 76.7614C37.1903 77.4773 37.0028 78.3182 37.0028 79.2841V95H29.7415ZM85.4545 95.5114C82.7614 95.5114 80.4432 94.9659 78.5 93.875C76.5682 92.7727 75.0795 91.2159 74.0341 89.2045C72.9886 87.1818 72.4659 84.7898 72.4659 82.0284C72.4659 79.3352 72.9886 76.9716 74.0341 74.9375C75.0795 72.9034 76.5511 71.3182 78.4489 70.1818C80.358 69.0455 82.5966 68.4773 85.1648 68.4773C86.892 68.4773 88.5 68.7557 89.9886 69.3125C91.4886 69.858 92.7955 70.6818 93.9091 71.7841C95.0341 72.8864 95.9091 74.2727 96.5341 75.9432C97.1591 77.6023 97.4716 79.5455 97.4716 81.7727V83.767H75.3636V79.267H90.6364C90.6364 78.2216 90.4091 77.2955 89.9545 76.4886C89.5 75.6818 88.8693 75.0511 88.0625 74.5966C87.267 74.1307 86.3409 73.8977 85.2841 73.8977C84.1818 73.8977 83.2045 74.1534 82.3523 74.6648C81.5114 75.1648 80.8523 75.8409 80.375 76.6932C79.8977 77.5341 79.6534 78.4716 79.642 79.5057V83.7841C79.642 85.0795 79.8807 86.1989 80.358 87.142C80.8466 88.0852 81.5341 88.8125 82.4205 89.3239C83.3068 89.8352 84.358 90.0909 85.5739 90.0909C86.3807 90.0909 87.1193 89.9773 87.7898 89.75C88.4602 89.5227 89.0341 89.1818 89.5114 88.7273C89.9886 88.2727 90.3523 87.7159 90.6023 87.0568L97.3182 87.5C96.9773 89.1136 96.2784 90.5227 95.2216 91.7273C94.1761 92.9205 92.8239 93.8523 91.1648 94.5227C89.517 95.1818 87.6136 95.5114 85.4545 95.5114ZM116.136 68.8182V74.2727H100.369V68.8182H116.136ZM103.949 62.5455H111.21V86.9545C111.21 87.625 111.313 88.1477 111.517 88.5227C111.722 88.8864 112.006 89.142 112.369 89.2898C112.744 89.4375 113.176 89.5114 113.665 89.5114C114.006 89.5114 114.347 89.483 114.688 89.4261C115.028 89.358 115.29 89.3068 115.472 89.2727L116.614 94.6761C116.25 94.7898 115.739 94.9205 115.08 95.0682C114.42 95.2273 113.619 95.3239 112.676 95.358C110.926 95.4261 109.392 95.1932 108.074 94.6591C106.767 94.125 105.75 93.2955 105.023 92.1705C104.295 91.0455 103.938 89.625 103.949 87.9091V62.5455ZM136.459 104.818C135.538 104.818 134.675 104.744 133.868 104.597C133.072 104.46 132.413 104.284 131.891 104.068L133.527 98.6477C134.379 98.9091 135.146 99.0511 135.828 99.0739C136.521 99.0966 137.118 98.9375 137.618 98.5966C138.129 98.2557 138.544 97.6761 138.862 96.858L139.288 95.75L129.896 68.8182H137.533L142.953 88.0455H143.226L148.697 68.8182H156.385L146.209 97.8295C145.72 99.2386 145.055 100.466 144.214 101.511C143.385 102.568 142.334 103.381 141.061 103.949C139.788 104.528 138.254 104.818 136.459 104.818ZM171.087 95.5114C168.439 95.5114 166.149 94.9489 164.217 93.8239C162.297 92.6875 160.814 91.108 159.768 89.0852C158.723 87.0511 158.2 84.6932 158.2 82.0114C158.2 79.3068 158.723 76.9432 159.768 74.9205C160.814 72.8864 162.297 71.3068 164.217 70.1818C166.149 69.0455 168.439 68.4773 171.087 68.4773C173.734 68.4773 176.018 69.0455 177.939 70.1818C179.871 71.3068 181.359 72.8864 182.405 74.9205C183.45 76.9432 183.973 79.3068 183.973 82.0114C183.973 84.6932 183.45 87.0511 182.405 89.0852C181.359 91.108 179.871 92.6875 177.939 93.8239C176.018 94.9489 173.734 95.5114 171.087 95.5114ZM171.121 89.8864C172.325 89.8864 173.331 89.5455 174.138 88.8636C174.945 88.1705 175.553 87.2273 175.962 86.0341C176.382 84.8409 176.592 83.483 176.592 81.9602C176.592 80.4375 176.382 79.0795 175.962 77.8864C175.553 76.6932 174.945 75.75 174.138 75.0568C173.331 74.3636 172.325 74.017 171.121 74.017C169.905 74.017 168.882 74.3636 168.053 75.0568C167.234 75.75 166.615 76.6932 166.195 77.8864C165.786 79.0795 165.581 80.4375 165.581 81.9602C165.581 83.483 165.786 84.8409 166.195 86.0341C166.615 87.2273 167.234 88.1705 168.053 88.8636C168.882 89.5455 169.905 89.8864 171.121 89.8864ZM196.906 98.36H244.906V50.36H196.906V98.36Z" fill="black"/>
<path d="M325.374 37.4261C323.385 37.4261 321.584 36.9148 319.97 35.892C318.368 34.858 317.095 33.3409 316.152 31.3409C315.22 29.3295 314.754 26.8636 314.754 23.9432C314.754 20.9432 315.237 18.4489 316.203 16.4602C317.169 14.4602 318.453 12.9659 320.055 11.9773C321.669 10.9773 323.436 10.4773 325.357 10.4773C326.822 10.4773 328.044 10.7273 329.021 11.2273C330.01 11.7159 330.805 12.3295 331.408 13.0682C332.021 13.7955 332.487 14.5114 332.805 15.2159H333.027V2.09091H340.271V37H333.112V32.8068H332.805C332.464 33.5341 331.982 34.2557 331.357 34.9716C330.743 35.6761 329.942 36.2614 328.953 36.7273C327.976 37.1932 326.783 37.4261 325.374 37.4261ZM327.675 31.6477C328.845 31.6477 329.834 31.3295 330.641 30.6932C331.459 30.0455 332.084 29.142 332.516 27.983C332.959 26.8239 333.18 25.4659 333.18 23.9091C333.18 22.3523 332.964 21 332.533 19.8523C332.101 18.7045 331.476 17.8182 330.658 17.1932C329.839 16.5682 328.845 16.2557 327.675 16.2557C326.482 16.2557 325.476 16.5795 324.658 17.2273C323.839 17.875 323.22 18.7727 322.8 19.9205C322.379 21.0682 322.169 22.3977 322.169 23.9091C322.169 25.4318 322.379 26.7784 322.8 27.9489C323.232 29.108 323.851 30.017 324.658 30.6761C325.476 31.3239 326.482 31.6477 327.675 31.6477ZM358.071 37.5114C355.423 37.5114 353.134 36.9489 351.202 35.8239C349.281 34.6875 347.798 33.108 346.753 31.0852C345.707 29.0511 345.185 26.6932 345.185 24.0114C345.185 21.3068 345.707 18.9432 346.753 16.9205C347.798 14.8864 349.281 13.3068 351.202 12.1818C353.134 11.0455 355.423 10.4773 358.071 10.4773C360.719 10.4773 363.003 11.0455 364.923 12.1818C366.855 13.3068 368.344 14.8864 369.389 16.9205C370.435 18.9432 370.957 21.3068 370.957 24.0114C370.957 26.6932 370.435 29.0511 369.389 31.0852C368.344 33.108 366.855 34.6875 364.923 35.8239C363.003 36.9489 360.719 37.5114 358.071 37.5114ZM358.105 31.8864C359.31 31.8864 360.315 31.5455 361.122 30.8636C361.929 30.1705 362.537 29.2273 362.946 28.0341C363.366 26.8409 363.577 25.483 363.577 23.9602C363.577 22.4375 363.366 21.0795 362.946 19.8864C362.537 18.6932 361.929 17.75 361.122 17.0568C360.315 16.3636 359.31 16.017 358.105 16.017C356.889 16.017 355.866 16.3636 355.037 17.0568C354.219 17.75 353.599 18.6932 353.179 19.8864C352.77 21.0795 352.565 22.4375 352.565 23.9602C352.565 25.483 352.77 26.8409 353.179 28.0341C353.599 29.2273 354.219 30.1705 355.037 30.8636C355.866 31.5455 356.889 31.8864 358.105 31.8864ZM382.94 2.09091V37H375.679V2.09091H382.94ZM400.587 37.5114C397.939 37.5114 395.649 36.9489 393.717 35.8239C391.797 34.6875 390.314 33.108 389.268 31.0852C388.223 29.0511 387.7 26.6932 387.7 24.0114C387.7 21.3068 388.223 18.9432 389.268 16.9205C390.314 14.8864 391.797 13.3068 393.717 12.1818C395.649 11.0455 397.939 10.4773 400.587 10.4773C403.234 10.4773 405.518 11.0455 407.439 12.1818C409.371 13.3068 410.859 14.8864 411.905 16.9205C412.95 18.9432 413.473 21.3068 413.473 24.0114C413.473 26.6932 412.95 29.0511 411.905 31.0852C410.859 33.108 409.371 34.6875 407.439 35.8239C405.518 36.9489 403.234 37.5114 400.587 37.5114ZM400.621 31.8864C401.825 31.8864 402.831 31.5455 403.638 30.8636C404.445 30.1705 405.053 29.2273 405.462 28.0341C405.882 26.8409 406.092 25.483 406.092 23.9602C406.092 22.4375 405.882 21.0795 405.462 19.8864C405.053 18.6932 404.445 17.75 403.638 17.0568C402.831 16.3636 401.825 16.017 400.621 16.017C399.405 16.017 398.382 16.3636 397.553 17.0568C396.734 17.75 396.115 18.6932 395.695 19.8864C395.286 21.0795 395.081 22.4375 395.081 23.9602C395.081 25.483 395.286 26.8409 395.695 28.0341C396.115 29.2273 396.734 30.1705 397.553 30.8636C398.382 31.5455 399.405 31.8864 400.621 31.8864ZM418.195 37V10.8182H425.234V15.3864H425.507C425.984 13.7614 426.786 12.5341 427.911 11.7045C429.036 10.8636 430.331 10.4432 431.797 10.4432C432.161 10.4432 432.553 10.4659 432.973 10.5114C433.393 10.5568 433.763 10.6193 434.081 10.6989V17.142C433.74 17.0398 433.268 16.9489 432.666 16.8693C432.064 16.7898 431.513 16.75 431.013 16.75C429.945 16.75 428.99 16.983 428.149 17.4489C427.32 17.9034 426.661 18.5398 426.172 19.358C425.695 20.1761 425.456 21.1193 425.456 22.1875V37H418.195Z" fill="#46B0E6"/>
</svg>
<svg width="504" height="105" viewBox="0 0 504 105" fill="none" xmlns="http://www.w3.org/2000/svg">
<path d="M2.03409 37V2.09091H9.41477V30.9148H24.3807V37H2.03409ZM40.9616 37.5114C38.3139 37.5114 36.0241 36.9489 34.0923 35.8239C32.1719 34.6875 30.6889 33.108 29.6435 31.0852C28.598 29.0511 28.0753 26.6932 28.0753 24.0114C28.0753 21.3068 28.598 18.9432 29.6435 16.9205C30.6889 14.8864 32.1719 13.3068 34.0923 12.1818C36.0241 11.0455 38.3139 10.4773 40.9616 10.4773C43.6094 10.4773 45.8935 11.0455 47.8139 12.1818C49.7457 13.3068 51.2344 14.8864 52.2798 16.9205C53.3253 18.9432 53.848 21.3068 53.848 24.0114C53.848 26.6932 53.3253 29.0511 52.2798 31.0852C51.2344 33.108 49.7457 34.6875 47.8139 35.8239C45.8935 36.9489 43.6094 37.5114 40.9616 37.5114ZM40.9957 31.8864C42.2003 31.8864 43.206 31.5455 44.0128 30.8636C44.8196 30.1705 45.4276 29.2273 45.8366 28.0341C46.2571 26.8409 46.4673 25.483 46.4673 23.9602C46.4673 22.4375 46.2571 21.0795 45.8366 19.8864C45.4276 18.6932 44.8196 17.75 44.0128 17.0568C43.206 16.3636 42.2003 16.017 40.9957 16.017C39.7798 16.017 38.7571 16.3636 37.9276 17.0568C37.1094 17.75 36.4901 18.6932 36.0696 19.8864C35.6605 21.0795 35.456 22.4375 35.456 23.9602C35.456 25.483 35.6605 26.8409 36.0696 28.0341C36.4901 29.2273 37.1094 30.1705 37.9276 30.8636C38.7571 31.5455 39.7798 31.8864 40.9957 31.8864ZM58.5696 37V10.8182H65.6094V15.3864H65.8821C66.3594 13.7614 67.1605 12.5341 68.2855 11.7045C69.4105 10.8636 70.706 10.4432 72.1719 10.4432C72.5355 10.4432 72.9276 10.4659 73.348 10.5114C73.7685 10.5568 74.1378 10.6193 74.456 10.6989V17.142C74.1151 17.0398 73.6435 16.9489 73.0412 16.8693C72.4389 16.7898 71.8878 16.75 71.3878 16.75C70.3196 16.75 69.3651 16.983 68.5241 17.4489C67.6946 17.9034 67.0355 18.5398 66.5469 19.358C66.0696 20.1761 65.831 21.1193 65.831 22.1875V37H58.5696ZM88.9233 37.5114C86.2301 37.5114 83.9119 36.9659 81.9688 35.875C80.0369 34.7727 78.5483 33.2159 77.5028 31.2045C76.4574 29.1818 75.9347 26.7898 75.9347 24.0284C75.9347 21.3352 76.4574 18.9716 77.5028 16.9375C78.5483 14.9034 80.0199 13.3182 81.9176 12.1818C83.8267 11.0455 86.0653 10.4773 88.6335 10.4773C90.3608 10.4773 91.9688 10.7557 93.4574 11.3125C94.9574 11.858 96.2642 12.6818 97.3778 13.7841C98.5028 14.8864 99.3778 16.2727 100.003 17.9432C100.628 19.6023 100.94 21.5455 100.94 23.7727V25.767H78.8324V21.267H94.1051C94.1051 20.2216 93.8778 19.2955 93.4233 18.4886C92.9688 17.6818 92.3381 17.0511 91.5312 16.5966C90.7358 16.1307 89.8097 15.8977 88.7528 15.8977C87.6506 15.8977 86.6733 16.1534 85.821 16.6648C84.9801 17.1648 84.321 17.8409 83.8438 18.6932C83.3665 19.5341 83.1222 20.4716 83.1108 21.5057V25.7841C83.1108 27.0795 83.3494 28.1989 83.8267 29.142C84.3153 30.0852 85.0028 30.8125 85.8892 31.3239C86.7756 31.8352 87.8267 32.0909 89.0426 32.0909C89.8494 32.0909 90.5881 31.9773 91.2585 31.75C91.929 31.5227 92.5028 31.1818 92.9801 30.7273C93.4574 30.2727 93.821 29.7159 94.071 29.0568L100.787 29.5C100.446 31.1136 99.7472 32.5227 98.6903 33.7273C97.6449 34.9205 96.2926 35.8523 94.6335 36.5227C92.9858 37.1818 91.0824 37.5114 88.9233 37.5114ZM105.679 37V10.8182H112.599V15.4375H112.906C113.452 13.9034 114.361 12.6932 115.634 11.8068C116.906 10.9205 118.429 10.4773 120.202 10.4773C121.997 10.4773 123.526 10.9261 124.787 11.8239C126.048 12.7102 126.889 13.9148 127.31 15.4375H127.582C128.116 13.9375 129.082 12.7386 130.48 11.8409C131.889 10.9318 133.554 10.4773 135.474 10.4773C137.918 10.4773 139.901 11.2557 141.423 12.8125C142.957 14.358 143.724 16.5511 143.724 19.392V37H136.48V20.8239C136.48 19.3693 136.094 18.2784 135.321 17.5511C134.548 16.8239 133.582 16.4602 132.423 16.4602C131.105 16.4602 130.077 16.8807 129.338 17.7216C128.599 18.5511 128.23 19.6477 128.23 21.0114V37H121.19V20.6705C121.19 19.3864 120.821 18.3636 120.082 17.6023C119.355 16.8409 118.395 16.4602 117.202 16.4602C116.395 16.4602 115.668 16.6648 115.02 17.0739C114.384 17.4716 113.878 18.0341 113.503 18.7614C113.128 19.4773 112.94 20.3182 112.94 21.2841V37H105.679ZM160.57 37V10.8182H167.831V37H160.57ZM164.217 7.44318C163.138 7.44318 162.212 7.08523 161.439 6.36932C160.678 5.64204 160.297 4.77273 160.297 3.76136C160.297 2.76136 160.678 1.90341 161.439 1.1875C162.212 0.460226 163.138 0.0965891 164.217 0.0965891C165.297 0.0965891 166.217 0.460226 166.979 1.1875C167.751 1.90341 168.138 2.76136 168.138 3.76136C168.138 4.77273 167.751 5.64204 166.979 6.36932C166.217 7.08523 165.297 7.44318 164.217 7.44318ZM173.648 46.8182V10.8182H180.807V15.2159H181.131C181.449 14.5114 181.909 13.7955 182.511 13.0682C183.125 12.3295 183.92 11.7159 184.898 11.2273C185.886 10.7273 187.114 10.4773 188.58 10.4773C190.489 10.4773 192.25 10.9773 193.864 11.9773C195.477 12.9659 196.767 14.4602 197.733 16.4602C198.699 18.4489 199.182 20.9432 199.182 23.9432C199.182 26.8636 198.71 29.3295 197.767 31.3409C196.835 33.3409 195.563 34.858 193.949 35.892C192.347 36.9148 190.551 37.4261 188.562 37.4261C187.153 37.4261 185.955 37.1932 184.966 36.7273C183.989 36.2614 183.188 35.6761 182.562 34.9716C181.938 34.2557 181.46 33.5341 181.131 32.8068H180.909V46.8182H173.648ZM180.756 23.9091C180.756 25.4659 180.972 26.8239 181.403 27.983C181.835 29.142 182.46 30.0455 183.278 30.6932C184.097 31.3295 185.091 31.6477 186.261 31.6477C187.443 31.6477 188.443 31.3239 189.261 30.6761C190.08 30.017 190.699 29.108 191.119 27.9489C191.551 26.7784 191.767 25.4318 191.767 23.9091C191.767 22.3977 191.557 21.0682 191.136 19.9205C190.716 18.7727 190.097 17.875 189.278 17.2273C188.46 16.5795 187.455 16.2557 186.261 16.2557C185.08 16.2557 184.08 16.5682 183.261 17.1932C182.455 17.8182 181.835 18.7045 181.403 19.8523C180.972 21 180.756 22.3523 180.756 23.9091ZM225.807 18.2841L219.159 18.6932C219.045 18.125 218.801 17.6136 218.426 17.1591C218.051 16.6932 217.557 16.3239 216.943 16.0511C216.341 15.767 215.619 15.625 214.778 15.625C213.653 15.625 212.705 15.8636 211.932 16.3409C211.159 16.8068 210.773 17.4318 210.773 18.2159C210.773 18.8409 211.023 19.3693 211.523 19.8011C212.023 20.233 212.881 20.5795 214.097 20.8409L218.835 21.7955C221.381 22.3182 223.278 23.1591 224.528 24.3182C225.778 25.4773 226.403 27 226.403 28.8864C226.403 30.6023 225.898 32.108 224.886 33.4034C223.886 34.6989 222.511 35.7102 220.761 36.4375C219.023 37.1534 217.017 37.5114 214.744 37.5114C211.278 37.5114 208.517 36.7898 206.46 35.3466C204.415 33.892 203.216 31.9148 202.864 29.4148L210.006 29.0398C210.222 30.0966 210.744 30.9034 211.574 31.4602C212.403 32.0057 213.466 32.2784 214.761 32.2784C216.034 32.2784 217.057 32.0341 217.83 31.5455C218.614 31.0455 219.011 30.4034 219.023 29.6193C219.011 28.9602 218.733 28.4205 218.188 28C217.642 27.5682 216.801 27.2386 215.665 27.0114L211.131 26.108C208.574 25.5966 206.67 24.7102 205.42 23.4489C204.182 22.1875 203.562 20.5795 203.562 18.625C203.562 16.9432 204.017 15.4943 204.926 14.2784C205.847 13.0625 207.136 12.125 208.795 11.4659C210.466 10.8068 212.42 10.4773 214.659 10.4773C217.966 10.4773 220.568 11.1761 222.466 12.5739C224.375 13.9716 225.489 15.875 225.807 18.2841ZM247.766 25.8523V10.8182H255.027V37H248.055V32.2443H247.783C247.192 33.7784 246.209 35.0114 244.834 35.9432C243.47 36.875 241.805 37.3409 239.839 37.3409C238.089 37.3409 236.55 36.9432 235.22 36.1477C233.891 35.3523 232.851 34.2216 232.101 32.7557C231.362 31.2898 230.987 29.5341 230.976 27.4886V10.8182H238.237V26.1932C238.249 27.7386 238.663 28.9602 239.482 29.858C240.3 30.7557 241.396 31.2045 242.771 31.2045C243.646 31.2045 244.464 31.0057 245.226 30.608C245.987 30.1989 246.601 29.5966 247.067 28.8011C247.544 28.0057 247.777 27.0227 247.766 25.8523ZM260.835 37V10.8182H267.756V15.4375H268.062C268.608 13.9034 269.517 12.6932 270.79 11.8068C272.062 10.9205 273.585 10.4773 275.358 10.4773C277.153 10.4773 278.682 10.9261 279.943 11.8239C281.205 12.7102 282.045 13.9148 282.466 15.4375H282.739C283.273 13.9375 284.239 12.7386 285.636 11.8409C287.045 10.9318 288.71 10.4773 290.631 10.4773C293.074 10.4773 295.057 11.2557 296.58 12.8125C298.114 14.358 298.881 16.5511 298.881 19.392V37H291.636V20.8239C291.636 19.3693 291.25 18.2784 290.477 17.5511C289.705 16.8239 288.739 16.4602 287.58 16.4602C286.261 16.4602 285.233 16.8807 284.494 17.7216C283.756 18.5511 283.386 19.6477 283.386 21.0114V37H276.347V20.6705C276.347 19.3864 275.977 18.3636 275.239 17.6023C274.511 16.8409 273.551 16.4602 272.358 16.4602C271.551 16.4602 270.824 16.6648 270.176 17.0739C269.54 17.4716 269.034 18.0341 268.659 18.7614C268.284 19.4773 268.097 20.3182 268.097 21.2841V37H260.835ZM470.729 18.2841L464.081 18.6932C463.967 18.125 463.723 17.6136 463.348 17.1591C462.973 16.6932 462.479 16.3239 461.865 16.0511C461.263 15.767 460.541 15.625 459.7 15.625C458.575 15.625 457.626 15.8636 456.854 16.3409C456.081 16.8068 455.695 17.4318 455.695 18.2159C455.695 18.8409 455.945 19.3693 456.445 19.8011C456.945 20.233 457.803 20.5795 459.018 20.8409L463.757 21.7955C466.303 22.3182 468.2 23.1591 469.45 24.3182C470.7 25.4773 471.325 27 471.325 28.8864C471.325 30.6023 470.82 32.108 469.808 33.4034C468.808 34.6989 467.433 35.7102 465.683 36.4375C463.945 37.1534 461.939 37.5114 459.666 37.5114C456.2 37.5114 453.439 36.7898 451.382 35.3466C449.337 33.892 448.138 31.9148 447.786 29.4148L454.928 29.0398C455.143 30.0966 455.666 30.9034 456.496 31.4602C457.325 32.0057 458.388 32.2784 459.683 32.2784C460.956 32.2784 461.979 32.0341 462.751 31.5455C463.536 31.0455 463.933 30.4034 463.945 29.6193C463.933 28.9602 463.655 28.4205 463.109 28C462.564 27.5682 461.723 27.2386 460.587 27.0114L456.053 26.108C453.496 25.5966 451.592 24.7102 450.342 23.4489C449.104 22.1875 448.484 20.5795 448.484 18.625C448.484 16.9432 448.939 15.4943 449.848 14.2784C450.768 13.0625 452.058 12.125 453.717 11.4659C455.388 10.8068 457.342 10.4773 459.581 10.4773C462.888 10.4773 465.49 11.1761 467.388 12.5739C469.297 13.9716 470.411 15.875 470.729 18.2841ZM475.898 37V10.8182H483.159V37H475.898ZM479.545 7.44318C478.466 7.44318 477.54 7.08523 476.767 6.36932C476.006 5.64204 475.625 4.77273 475.625 3.76136C475.625 2.76136 476.006 1.90341 476.767 1.1875C477.54 0.460226 478.466 0.0965891 479.545 0.0965891C480.625 0.0965891 481.545 0.460226 482.307 1.1875C483.08 1.90341 483.466 2.76136 483.466 3.76136C483.466 4.77273 483.08 5.64204 482.307 6.36932C481.545 7.08523 480.625 7.44318 479.545 7.44318ZM502.902 10.8182V16.2727H487.135V10.8182H502.902ZM490.714 4.54545H497.976V28.9545C497.976 29.625 498.078 30.1477 498.283 30.5227C498.487 30.8864 498.771 31.142 499.135 31.2898C499.51 31.4375 499.942 31.5114 500.43 31.5114C500.771 31.5114 501.112 31.483 501.453 31.4261C501.794 31.358 502.055 31.3068 502.237 31.2727L503.379 36.6761C503.016 36.7898 502.504 36.9205 501.845 37.0682C501.186 37.2273 500.385 37.3239 499.442 37.358C497.692 37.4261 496.158 37.1932 494.839 36.6591C493.533 36.125 492.516 35.2955 491.788 34.1705C491.061 33.0455 490.703 31.625 490.714 29.9091V4.54545ZM9.36364 95.4943C7.69318 95.4943 6.20455 95.2045 4.89773 94.625C3.59091 94.0341 2.55682 93.1648 1.79545 92.017C1.04545 90.858 0.670455 89.4148 0.670455 87.6875C0.670455 86.233 0.9375 85.0114 1.47159 84.0227C2.00568 83.0341 2.73295 82.2386 3.65341 81.6364C4.57386 81.0341 5.61932 80.5795 6.78977 80.2727C7.97159 79.9659 9.21023 79.75 10.5057 79.625C12.0284 79.4659 13.2557 79.3182 14.1875 79.1818C15.1193 79.0341 15.7955 78.8182 16.2159 78.5341C16.6364 78.25 16.8466 77.8295 16.8466 77.2727V77.1705C16.8466 76.0909 16.5057 75.2557 15.8239 74.6648C15.1534 74.0739 14.1989 73.7784 12.9602 73.7784C11.6534 73.7784 10.6136 74.0682 9.84091 74.6477C9.06818 75.2159 8.55682 75.9318 8.30682 76.7955L1.59091 76.25C1.93182 74.6591 2.60227 73.2841 3.60227 72.125C4.60227 70.9545 5.89205 70.0568 7.47159 69.4318C9.0625 68.7955 10.9034 68.4773 12.9943 68.4773C14.4489 68.4773 15.8409 68.6477 17.1705 68.9886C18.5114 69.3295 19.6989 69.858 20.733 70.5739C21.7784 71.2898 22.6023 72.2102 23.2045 73.3352C23.8068 74.4489 24.108 75.7841 24.108 77.3409V95H17.2216V91.3693H17.017C16.5966 92.1875 16.0341 92.9091 15.3295 93.5341C14.625 94.1477 13.7784 94.6307 12.7898 94.983C11.8011 95.3239 10.6591 95.4943 9.36364 95.4943ZM11.4432 90.483C12.5114 90.483 13.4545 90.2727 14.2727 89.8523C15.0909 89.4205 15.733 88.8409 16.1989 88.1136C16.6648 87.3864 16.8977 86.5625 16.8977 85.642V82.8636C16.6705 83.0114 16.358 83.1477 15.9602 83.2727C15.5739 83.3864 15.1364 83.4943 14.6477 83.5966C14.1591 83.6875 13.6705 83.7727 13.1818 83.8523C12.6932 83.9205 12.25 83.983 11.8523 84.0398C11 84.1648 10.2557 84.3636 9.61932 84.6364C8.98295 84.9091 8.48864 85.2784 8.13636 85.7443C7.78409 86.1989 7.60795 86.767 7.60795 87.4489C7.60795 88.4375 7.96591 89.1932 8.68182 89.7159C9.40909 90.2273 10.3295 90.483 11.4432 90.483ZM29.7415 95V68.8182H36.6619V73.4375H36.9688C37.5142 71.9034 38.4233 70.6932 39.696 69.8068C40.9688 68.9205 42.4915 68.4773 44.2642 68.4773C46.0597 68.4773 47.5881 68.9261 48.8494 69.8239C50.1108 70.7102 50.9517 71.9148 51.3722 73.4375H51.6449C52.179 71.9375 53.1449 70.7386 54.5426 69.8409C55.9517 68.9318 57.6165 68.4773 59.5369 68.4773C61.9801 68.4773 63.9631 69.2557 65.4858 70.8125C67.0199 72.358 67.7869 74.5511 67.7869 77.392V95H60.5426V78.8239C60.5426 77.3693 60.1563 76.2784 59.3835 75.5511C58.6108 74.8239 57.6449 74.4602 56.4858 74.4602C55.1676 74.4602 54.1392 74.8807 53.4006 75.7216C52.6619 76.5511 52.2926 77.6477 52.2926 79.0114V95H45.2528V78.6705C45.2528 77.3864 44.8835 76.3636 44.1449 75.6023C43.4176 74.8409 42.4574 74.4602 41.2642 74.4602C40.4574 74.4602 39.7301 74.6648 39.0824 75.0739C38.446 75.4716 37.9403 76.0341 37.5653 76.7614C37.1903 77.4773 37.0028 78.3182 37.0028 79.2841V95H29.7415ZM85.4545 95.5114C82.7614 95.5114 80.4432 94.9659 78.5 93.875C76.5682 92.7727 75.0795 91.2159 74.0341 89.2045C72.9886 87.1818 72.4659 84.7898 72.4659 82.0284C72.4659 79.3352 72.9886 76.9716 74.0341 74.9375C75.0795 72.9034 76.5511 71.3182 78.4489 70.1818C80.358 69.0455 82.5966 68.4773 85.1648 68.4773C86.892 68.4773 88.5 68.7557 89.9886 69.3125C91.4886 69.858 92.7955 70.6818 93.9091 71.7841C95.0341 72.8864 95.9091 74.2727 96.5341 75.9432C97.1591 77.6023 97.4716 79.5455 97.4716 81.7727V83.767H75.3636V79.267H90.6364C90.6364 78.2216 90.4091 77.2955 89.9545 76.4886C89.5 75.6818 88.8693 75.0511 88.0625 74.5966C87.267 74.1307 86.3409 73.8977 85.2841 73.8977C84.1818 73.8977 83.2045 74.1534 82.3523 74.6648C81.5114 75.1648 80.8523 75.8409 80.375 76.6932C79.8977 77.5341 79.6534 78.4716 79.642 79.5057V83.7841C79.642 85.0795 79.8807 86.1989 80.358 87.142C80.8466 88.0852 81.5341 88.8125 82.4205 89.3239C83.3068 89.8352 84.358 90.0909 85.5739 90.0909C86.3807 90.0909 87.1193 89.9773 87.7898 89.75C88.4602 89.5227 89.0341 89.1818 89.5114 88.7273C89.9886 88.2727 90.3523 87.7159 90.6023 87.0568L97.3182 87.5C96.9773 89.1136 96.2784 90.5227 95.2216 91.7273C94.1761 92.9205 92.8239 93.8523 91.1648 94.5227C89.517 95.1818 87.6136 95.5114 85.4545 95.5114ZM116.136 68.8182V74.2727H100.369V68.8182H116.136ZM103.949 62.5455H111.21V86.9545C111.21 87.625 111.313 88.1477 111.517 88.5227C111.722 88.8864 112.006 89.142 112.369 89.2898C112.744 89.4375 113.176 89.5114 113.665 89.5114C114.006 89.5114 114.347 89.483 114.688 89.4261C115.028 89.358 115.29 89.3068 115.472 89.2727L116.614 94.6761C116.25 94.7898 115.739 94.9205 115.08 95.0682C114.42 95.2273 113.619 95.3239 112.676 95.358C110.926 95.4261 109.392 95.1932 108.074 94.6591C106.767 94.125 105.75 93.2955 105.023 92.1705C104.295 91.0455 103.938 89.625 103.949 87.9091V62.5455ZM136.459 104.818C135.538 104.818 134.675 104.744 133.868 104.597C133.072 104.46 132.413 104.284 131.891 104.068L133.527 98.6477C134.379 98.9091 135.146 99.0511 135.828 99.0739C136.521 99.0966 137.118 98.9375 137.618 98.5966C138.129 98.2557 138.544 97.6761 138.862 96.858L139.288 95.75L129.896 68.8182H137.533L142.953 88.0455H143.226L148.697 68.8182H156.385L146.209 97.8295C145.72 99.2386 145.055 100.466 144.214 101.511C143.385 102.568 142.334 103.381 141.061 103.949C139.788 104.528 138.254 104.818 136.459 104.818ZM171.087 95.5114C168.439 95.5114 166.149 94.9489 164.217 93.8239C162.297 92.6875 160.814 91.108 159.768 89.0852C158.723 87.0511 158.2 84.6932 158.2 82.0114C158.2 79.3068 158.723 76.9432 159.768 74.9205C160.814 72.8864 162.297 71.3068 164.217 70.1818C166.149 69.0455 168.439 68.4773 171.087 68.4773C173.734 68.4773 176.018 69.0455 177.939 70.1818C179.871 71.3068 181.359 72.8864 182.405 74.9205C183.45 76.9432 183.973 79.3068 183.973 82.0114C183.973 84.6932 183.45 87.0511 182.405 89.0852C181.359 91.108 179.871 92.6875 177.939 93.8239C176.018 94.9489 173.734 95.5114 171.087 95.5114ZM171.121 89.8864C172.325 89.8864 173.331 89.5455 174.138 88.8636C174.945 88.1705 175.553 87.2273 175.962 86.0341C176.382 84.8409 176.592 83.483 176.592 81.9602C176.592 80.4375 176.382 79.0795 175.962 77.8864C175.553 76.6932 174.945 75.75 174.138 75.0568C173.331 74.3636 172.325 74.017 171.121 74.017C169.905 74.017 168.882 74.3636 168.053 75.0568C167.234 75.75 166.615 76.6932 166.195 77.8864C165.786 79.0795 165.581 80.4375 165.581 81.9602C165.581 83.483 165.786 84.8409 166.195 86.0341C166.615 87.2273 167.234 88.1705 168.053 88.8636C168.882 89.5455 169.905 89.8864 171.121 89.8864ZM196.906 98.36H244.906V50.36H196.906V98.36Z" fill="black"/>
<path d="M325.374 37.4261C323.385 37.4261 321.584 36.9148 319.97 35.892C318.368 34.858 317.095 33.3409 316.152 31.3409C315.22 29.3295 314.754 26.8636 314.754 23.9432C314.754 20.9432 315.237 18.4489 316.203 16.4602C317.169 14.4602 318.453 12.9659 320.055 11.9773C321.669 10.9773 323.436 10.4773 325.357 10.4773C326.822 10.4773 328.044 10.7273 329.021 11.2273C330.01 11.7159 330.805 12.3295 331.408 13.0682C332.021 13.7955 332.487 14.5114 332.805 15.2159H333.027V2.09091H340.271V37H333.112V32.8068H332.805C332.464 33.5341 331.982 34.2557 331.357 34.9716C330.743 35.6761 329.942 36.2614 328.953 36.7273C327.976 37.1932 326.783 37.4261 325.374 37.4261ZM327.675 31.6477C328.845 31.6477 329.834 31.3295 330.641 30.6932C331.459 30.0455 332.084 29.142 332.516 27.983C332.959 26.8239 333.18 25.4659 333.18 23.9091C333.18 22.3523 332.964 21 332.533 19.8523C332.101 18.7045 331.476 17.8182 330.658 17.1932C329.839 16.5682 328.845 16.2557 327.675 16.2557C326.482 16.2557 325.476 16.5795 324.658 17.2273C323.839 17.875 323.22 18.7727 322.8 19.9205C322.379 21.0682 322.169 22.3977 322.169 23.9091C322.169 25.4318 322.379 26.7784 322.8 27.9489C323.232 29.108 323.851 30.017 324.658 30.6761C325.476 31.3239 326.482 31.6477 327.675 31.6477ZM358.071 37.5114C355.423 37.5114 353.134 36.9489 351.202 35.8239C349.281 34.6875 347.798 33.108 346.753 31.0852C345.707 29.0511 345.185 26.6932 345.185 24.0114C345.185 21.3068 345.707 18.9432 346.753 16.9205C347.798 14.8864 349.281 13.3068 351.202 12.1818C353.134 11.0455 355.423 10.4773 358.071 10.4773C360.719 10.4773 363.003 11.0455 364.923 12.1818C366.855 13.3068 368.344 14.8864 369.389 16.9205C370.435 18.9432 370.957 21.3068 370.957 24.0114C370.957 26.6932 370.435 29.0511 369.389 31.0852C368.344 33.108 366.855 34.6875 364.923 35.8239C363.003 36.9489 360.719 37.5114 358.071 37.5114ZM358.105 31.8864C359.31 31.8864 360.315 31.5455 361.122 30.8636C361.929 30.1705 362.537 29.2273 362.946 28.0341C363.366 26.8409 363.577 25.483 363.577 23.9602C363.577 22.4375 363.366 21.0795 362.946 19.8864C362.537 18.6932 361.929 17.75 361.122 17.0568C360.315 16.3636 359.31 16.017 358.105 16.017C356.889 16.017 355.866 16.3636 355.037 17.0568C354.219 17.75 353.599 18.6932 353.179 19.8864C352.77 21.0795 352.565 22.4375 352.565 23.9602C352.565 25.483 352.77 26.8409 353.179 28.0341C353.599 29.2273 354.219 30.1705 355.037 30.8636C355.866 31.5455 356.889 31.8864 358.105 31.8864ZM382.94 2.09091V37H375.679V2.09091H382.94ZM400.587 37.5114C397.939 37.5114 395.649 36.9489 393.717 35.8239C391.797 34.6875 390.314 33.108 389.268 31.0852C388.223 29.0511 387.7 26.6932 387.7 24.0114C387.7 21.3068 388.223 18.9432 389.268 16.9205C390.314 14.8864 391.797 13.3068 393.717 12.1818C395.649 11.0455 397.939 10.4773 400.587 10.4773C403.234 10.4773 405.518 11.0455 407.439 12.1818C409.371 13.3068 410.859 14.8864 411.905 16.9205C412.95 18.9432 413.473 21.3068 413.473 24.0114C413.473 26.6932 412.95 29.0511 411.905 31.0852C410.859 33.108 409.371 34.6875 407.439 35.8239C405.518 36.9489 403.234 37.5114 400.587 37.5114ZM400.621 31.8864C401.825 31.8864 402.831 31.5455 403.638 30.8636C404.445 30.1705 405.053 29.2273 405.462 28.0341C405.882 26.8409 406.092 25.483 406.092 23.9602C406.092 22.4375 405.882 21.0795 405.462 19.8864C405.053 18.6932 404.445 17.75 403.638 17.0568C402.831 16.3636 401.825 16.017 400.621 16.017C399.405 16.017 398.382 16.3636 397.553 17.0568C396.734 17.75 396.115 18.6932 395.695 19.8864C395.286 21.0795 395.081 22.4375 395.081 23.9602C395.081 25.483 395.286 26.8409 395.695 28.0341C396.115 29.2273 396.734 30.1705 397.553 30.8636C398.382 31.5455 399.405 31.8864 400.621 31.8864ZM418.195 37V10.8182H425.234V15.3864H425.507C425.984 13.7614 426.786 12.5341 427.911 11.7045C429.036 10.8636 430.331 10.4432 431.797 10.4432C432.161 10.4432 432.553 10.4659 432.973 10.5114C433.393 10.5568 433.763 10.6193 434.081 10.6989V17.142C433.74 17.0398 433.268 16.9489 432.666 16.8693C432.064 16.7898 431.513 16.75 431.013 16.75C429.945 16.75 428.99 16.983 428.149 17.4489C427.32 17.9034 426.661 18.5398 426.172 19.358C425.695 20.1761 425.456 21.1193 425.456 22.1875V37H418.195Z" fill="#46B0E6"/>
</svg>
